<?xml version="1.0" standalone="no"?>
<!DOCTYPE svg PUBLIC "-//W3C//DTD SVG 20010904//EN"
 "http://www.w3.org/TR/2001/REC-SVG-20010904/DTD/svg10.dtd">
<svg version="1.0" xmlns="http://www.w3.org/2000/svg"
 width="150.000000pt" height="70.000000pt" viewBox="0 0 150.000000 70.000000"
 preserveAspectRatio="xMidYMid meet">

<g transform="translate(0.000000,70.000000) scale(0.100000,-0.100000)"
fill="#000000" stroke="none">
<path d="M1010 463 c-8 -3 -18 -11 -22 -17 -10 -14 -10 -218 0 -233 4 -6 19
-14 34 -18 l27 -7 -1 141 c-1 143 -2 147 -38 134z"/>
<path d="M690 395 c-9 -10 -9 -15 -1 -15 6 0 11 6 11 13 0 8 3 7 10 -3 5 -8
12 -12 15 -9 3 4 -1 11 -8 18 -11 9 -17 8 -27 -4z"/>
<path d="M388 343 c-2 -47 -7 -58 -21 -61 -34 -7 -67 7 -67 28 0 11 -4 20 -10
20 -18 0 -11 -39 9 -50 11 -5 38 -10 60 -10 l41 0 0 65 c0 80 -8 85 -12 8z"/>
<path d="M493 335 c0 -38 2 -53 4 -32 2 20 2 52 0 70 -2 17 -4 1 -4 -38z"/>
<path d="M330 350 c-9 -17 -8 -20 12 -20 17 0 19 3 9 9 -7 5 -10 14 -7 20 4 6
5 11 2 11 -3 0 -10 -9 -16 -20z"/>
<path d="M442 311 c-1 -38 -7 -58 -19 -67 -17 -13 -17 -13 0 -14 24 0 29 17
24 81 l-3 54 -2 -54z"/>
<path d="M543 353 c-7 -2 -13 -20 -13 -39 0 -30 4 -35 30 -40 39 -8 38 -21 -2
-33 -24 -7 -27 -9 -11 -10 31 -1 53 9 53 25 0 11 27 14 141 14 l140 0 -3 43
c-3 38 -6 42 -32 45 -33 4 -46 -10 -46 -50 0 -19 -5 -26 -17 -24 -13 2 -19 14
-21 39 -4 48 -17 48 -17 0 0 -51 -28 -53 -36 -3 l-6 35 -4 -35 c-5 -44 -31
-47 -40 -5 l-6 30 -4 -30 c-3 -22 -9 -30 -24 -30 -16 0 -21 8 -23 38 -3 31 -7
37 -25 36 -12 0 -28 -3 -34 -6z m45 -32 c4 -29 -9 -44 -31 -35 -20 7 -23 50
-4 57 20 9 32 2 35 -22z m266 23 c10 -4 16 -18 16 -35 0 -24 -4 -29 -25 -29
-22 0 -25 4 -25 35 0 35 5 40 34 29z"/>
</g>
</svg>
